<svg width="32" height="32" viewBox="0 0 32 32" fill="none" xmlns="http://www.w3.org/2000/svg">
  <!-- Simple cannabis leaf favicon -->
  <rect width="32" height="32" rx="6" fill="#10B981"/>
  <g transform="translate(16, 16)">
    <!-- Center leaf -->
    <path d="M 0,-10 Q 1,-6 1,-3 Q 1,-1 1,1 Q 1,4 0,6 Q -1,4 -1,1 Q -1,-1 -1,-3 Q -1,-6 0,-10 Z" 
          fill="#F6D14E"/>
    <!-- Left leaves -->
    <path d="M -1,-3 Q -3,-5 -5,-4 Q -6,-3 -5,-1 Q -4,0 -2,0 Z" fill="#F6D14E"/>
    <!-- Right leaves -->
    <path d="M 1,-3 Q 3,-5 5,-4 Q 6,-3 5,-1 Q 4,0 2,0 Z" fill="#F6D14E"/>
    <!-- Bottom leaves -->
    <path d="M -1,2 Q -2,4 -1,6 Q 0,6 1,6 Q 2,4 1,2 Z" fill="#F6D14E"/>
  </g>
</svg>
